<?xml version="1.0" encoding="UTF-8"?>
<!DOCTYPE svg PUBLIC "-//W3C//DTD SVG 1.1//EN" "http://www.w3.org/Graphics/SVG/1.1/DTD/svg11.dtd">
<svg xmlns="http://www.w3.org/2000/svg" version="1.1" width="832px" height="832px" style="shape-rendering:geometricPrecision; text-rendering:geometricPrecision; image-rendering:optimizeQuality; fill-rule:evenodd; clip-rule:evenodd" xmlns:xlink="http://www.w3.org/1999/xlink">
<g><path style="opacity:1" fill="#fbfcfd" d="M -0.5,-0.5 C 276.833,-0.5 554.167,-0.5 831.5,-0.5C 831.5,276.833 831.5,554.167 831.5,831.5C 554.167,831.5 276.833,831.5 -0.5,831.5C -0.5,554.167 -0.5,276.833 -0.5,-0.5 Z"/></g>
<g><path style="opacity:1" fill="#6c6cdc" d="M 571.5,467.5 C 536.833,467.5 502.167,467.5 467.5,467.5C 467.5,502.167 467.5,536.833 467.5,571.5C 502.167,571.5 536.833,571.5 571.5,571.5C 571.5,606.167 571.5,640.833 571.5,675.5C 502.167,675.5 432.833,675.5 363.5,675.5C 363.5,640.833 363.5,606.167 363.5,571.5C 294.167,571.5 224.833,571.5 155.5,571.5C 155.5,467.5 155.5,363.5 155.5,259.5C 190.167,259.5 224.833,259.5 259.5,259.5C 259.5,224.833 259.5,190.167 259.5,155.5C 363.5,155.5 467.5,155.5 571.5,155.5C 571.5,190.167 571.5,224.833 571.5,259.5C 606.167,259.5 640.833,259.5 675.5,259.5C 675.5,294.167 675.5,328.833 675.5,363.5C 640.833,363.5 606.167,363.5 571.5,363.5C 571.5,398.167 571.5,432.833 571.5,467.5 Z"/></g>
<g><path style="opacity:1" fill="#fbfcfd" d="M 467.5,467.5 C 432.833,467.5 398.167,467.5 363.5,467.5C 363.5,432.833 363.5,398.167 363.5,363.5C 398.167,363.5 432.833,363.5 467.5,363.5C 467.5,398.167 467.5,432.833 467.5,467.5 Z"/></g>
<g><path style="opacity:1" fill="#fbfcfd" d="M 467.5,467.5 C 502.167,467.5 536.833,467.5 571.5,467.5C 571.5,502.167 571.5,536.833 571.5,571.5C 536.833,571.5 502.167,571.5 467.5,571.5C 467.5,536.833 467.5,502.167 467.5,467.5 Z"/></g>
<g><path style="opacity:1" fill="#6c6cdc" d="M 571.5,467.5 C 606.167,467.5 640.833,467.5 675.5,467.5C 675.5,502.167 675.5,536.833 675.5,571.5C 640.833,571.5 606.167,571.5 571.5,571.5C 571.5,536.833 571.5,502.167 571.5,467.5 Z"/></g>
</svg>
