<svg width="201" height="28" viewBox="0 0 201 28" fill="none" xmlns="http://www.w3.org/2000/svg">
<g clip-path="url(#clip0_12_5)">
<rect width="201" height="28" fill="#E8DFDF"/>
<path d="M201 0H0V28H201V0Z" fill="#FBFBFB"/>
<path d="M201 0H0V28H201V0Z" stroke="black" stroke-opacity="0.05"/>
<mask id="mask0_12_5" style="mask-type:luminance" maskUnits="userSpaceOnUse" x="171" y="5" width="18" height="18">
<path d="M189 5H171V23H189V5Z" fill="white"/>
</mask>
<g mask="url(#mask0_12_5)">
<path d="M180 8.18612C177.639 4.13462 171 5.31737 171 10.3941C171 13.8898 175.178 17.4643 180 22.2501C184.823 17.4643 189 13.8898 189 10.3941C189 5.30012 182.344 4.16462 180 8.18612Z" fill="#EF4484"/>
</g>
<path d="M14.629 18H12.99V10.146H17.489V11.51H14.629V13.534H17.291V14.898H14.629V18ZM27.7281 15.228C27.7281 15.7707 27.6071 16.262 27.3651 16.702C27.1304 17.1347 26.7711 17.4793 26.2871 17.736C25.8104 17.9853 25.2054 18.11 24.4721 18.11C23.4308 18.11 22.6388 17.846 22.0961 17.318C21.5534 16.7827 21.2821 16.0787 21.2821 15.206V10.146H22.9431V14.953C22.9431 15.5983 23.0751 16.053 23.3391 16.317C23.6031 16.581 23.9954 16.713 24.5161 16.713C24.8828 16.713 25.1798 16.6507 25.4071 16.526C25.6344 16.4013 25.7994 16.207 25.9021 15.943C26.0121 15.679 26.0671 15.3453 26.0671 14.942V10.146H27.7281V15.228ZM38.9246 18H36.8126L33.3916 12.06H33.3476C33.3549 12.2433 33.3622 12.4303 33.3696 12.621C33.3769 12.8043 33.3842 12.9913 33.3916 13.182C33.4062 13.3653 33.4172 13.5523 33.4246 13.743C33.4319 13.9263 33.4392 14.1133 33.4466 14.304V18H31.9616V10.146H34.0626L37.4726 16.031H37.5056C37.4982 15.8477 37.4909 15.668 37.4836 15.492C37.4762 15.3087 37.4689 15.129 37.4616 14.953C37.4616 14.7697 37.4579 14.59 37.4506 14.414C37.4432 14.2307 37.4359 14.0473 37.4286 13.864V10.146H38.9246V18ZM49.7318 13.996C49.7318 14.876 49.5631 15.613 49.2258 16.207C48.8885 16.801 48.3971 17.2483 47.7518 17.549C47.1138 17.8497 46.3438 18 45.4418 18H43.2198V10.146H45.6838C46.5051 10.146 47.2165 10.2927 47.8178 10.586C48.4265 10.8793 48.8958 11.312 49.2258 11.884C49.5631 12.4487 49.7318 13.1527 49.7318 13.996ZM48.0048 14.04C48.0048 13.4607 47.9205 12.984 47.7518 12.61C47.5831 12.236 47.3301 11.961 46.9928 11.785C46.6628 11.6017 46.2558 11.51 45.7718 11.51H44.8808V16.625H45.5958C46.4098 16.625 47.0148 16.4087 47.4108 15.976C47.8068 15.5433 48.0048 14.898 48.0048 14.04ZM61.8648 18H60.2038V11.532H58.0698V10.146H63.9988V11.532H61.8648V18ZM73.9549 18H72.2939V14.612H69.1809V18H67.5199V10.146H69.1809V13.226H72.2939V10.146H73.9549V18ZM81.1781 18H77.6031V17.054L78.5601 16.614V11.532L77.6031 11.092V10.146H81.1781V11.092L80.2211 11.532V16.614L81.1781 17.054V18ZM89.4574 15.822C89.4574 16.284 89.3438 16.6873 89.1164 17.032C88.8891 17.3767 88.5591 17.6443 88.1264 17.835C87.7011 18.0183 87.1804 18.11 86.5644 18.11C86.2931 18.11 86.0254 18.0917 85.7614 18.055C85.5048 18.0183 85.2554 17.967 85.0134 17.901C84.7788 17.8277 84.5551 17.7397 84.3424 17.637V16.086C84.7164 16.2473 85.1014 16.3977 85.4974 16.537C85.9008 16.669 86.3004 16.735 86.6964 16.735C86.9678 16.735 87.1841 16.6983 87.3454 16.625C87.5141 16.5517 87.6351 16.4527 87.7084 16.328C87.7891 16.2033 87.8294 16.0603 87.8294 15.899C87.8294 15.701 87.7598 15.5323 87.6204 15.393C87.4884 15.2537 87.3088 15.1253 87.0814 15.008C86.8541 14.8833 86.5938 14.7513 86.3004 14.612C86.1171 14.524 85.9191 14.4213 85.7064 14.304C85.4938 14.1793 85.2884 14.029 85.0904 13.853C84.8998 13.6697 84.7421 13.4497 84.6174 13.193C84.4928 12.9363 84.4304 12.6283 84.4304 12.269C84.4304 11.7997 84.5368 11.4 84.7494 11.07C84.9694 10.7327 85.2774 10.476 85.6734 10.3C86.0768 10.124 86.5498 10.036 87.0924 10.036C87.5031 10.036 87.8918 10.0837 88.2584 10.179C88.6324 10.2743 89.0211 10.41 89.4244 10.586L88.8854 11.884C88.5261 11.7373 88.2034 11.6237 87.9174 11.543C87.6314 11.4623 87.3381 11.422 87.0374 11.422C86.8321 11.422 86.6561 11.455 86.5094 11.521C86.3628 11.587 86.2491 11.6787 86.1684 11.796C86.0951 11.9133 86.0584 12.0527 86.0584 12.214C86.0584 12.3973 86.1134 12.555 86.2234 12.687C86.3334 12.8117 86.4984 12.9327 86.7184 13.05C86.9384 13.1673 87.2134 13.3067 87.5434 13.468C87.9468 13.6587 88.2878 13.8567 88.5664 14.062C88.8524 14.2673 89.0724 14.5093 89.2264 14.788C89.3804 15.0667 89.4574 15.4113 89.4574 15.822ZM100.87 10.146C101.882 10.146 102.619 10.366 103.081 10.806C103.551 11.2387 103.785 11.8363 103.785 12.599C103.785 12.9437 103.734 13.2737 103.631 13.589C103.529 13.897 103.356 14.1757 103.114 14.425C102.88 14.667 102.568 14.8577 102.179 14.997C101.791 15.1363 101.31 15.206 100.738 15.206H100.023V18H98.3625V10.146H100.87ZM100.782 11.51H100.023V13.842H100.573C100.889 13.842 101.16 13.8017 101.387 13.721C101.615 13.6403 101.791 13.512 101.915 13.336C102.04 13.16 102.102 12.9327 102.102 12.654C102.102 12.2653 101.996 11.9793 101.783 11.796C101.571 11.6053 101.237 11.51 100.782 11.51ZM111.839 18L111.267 16.13H108.407L107.835 18H106.042L108.814 10.113H110.849L113.632 18H111.839ZM110.299 12.907C110.262 12.7823 110.214 12.6247 110.156 12.434C110.097 12.2433 110.038 12.049 109.98 11.851C109.921 11.653 109.873 11.4807 109.837 11.334C109.8 11.4807 109.749 11.664 109.683 11.884C109.624 12.0967 109.565 12.302 109.507 12.5C109.455 12.6907 109.415 12.8263 109.386 12.907L108.825 14.733H110.871L110.299 12.907ZM120.055 11.422C119.739 11.422 119.457 11.4843 119.208 11.609C118.966 11.7337 118.76 11.9133 118.592 12.148C118.423 12.3753 118.295 12.654 118.207 12.984C118.126 13.314 118.086 13.6843 118.086 14.095C118.086 14.6523 118.152 15.129 118.284 15.525C118.423 15.9137 118.639 16.2107 118.933 16.416C119.226 16.6213 119.6 16.724 120.055 16.724C120.377 16.724 120.696 16.6873 121.012 16.614C121.334 16.5407 121.683 16.438 122.057 16.306V17.703C121.712 17.8423 121.371 17.945 121.034 18.011C120.696 18.077 120.319 18.11 119.901 18.11C119.094 18.11 118.427 17.945 117.899 17.615C117.378 17.2777 116.993 16.8083 116.744 16.207C116.494 15.5983 116.37 14.8907 116.37 14.084C116.37 13.49 116.45 12.9473 116.612 12.456C116.773 11.9573 117.008 11.5283 117.316 11.169C117.631 10.8097 118.016 10.531 118.471 10.333C118.933 10.135 119.461 10.036 120.055 10.036C120.443 10.036 120.832 10.0873 121.221 10.19C121.617 10.2853 121.994 10.4173 122.354 10.586L121.815 11.939C121.521 11.7997 121.224 11.6787 120.924 11.576C120.63 11.4733 120.341 11.422 120.055 11.422ZM132.35 18H130.458L128.401 14.689L127.697 15.195V18H126.036V10.146H127.697V13.743C127.807 13.589 127.917 13.435 128.027 13.281C128.137 13.127 128.247 12.973 128.357 12.819L130.48 10.146H132.328L129.589 13.622L132.35 18ZM140.457 18L139.885 16.13H137.025L136.453 18H134.66L137.432 10.113H139.467L142.25 18H140.457ZM138.917 12.907C138.881 12.7823 138.833 12.6247 138.774 12.434C138.716 12.2433 138.657 12.049 138.598 11.851C138.54 11.653 138.492 11.4807 138.455 11.334C138.419 11.4807 138.367 11.664 138.301 11.884C138.243 12.0967 138.184 12.302 138.125 12.5C138.074 12.6907 138.034 12.8263 138.004 12.907L137.443 14.733H139.489L138.917 12.907ZM148.321 13.589H151.434V17.659C151.024 17.7983 150.595 17.9083 150.147 17.989C149.707 18.0697 149.205 18.11 148.64 18.11C147.863 18.11 147.199 17.956 146.649 17.648C146.107 17.34 145.692 16.8853 145.406 16.284C145.128 15.6827 144.988 14.942 144.988 14.062C144.988 13.2407 145.146 12.5293 145.461 11.928C145.784 11.3267 146.25 10.861 146.858 10.531C147.467 10.201 148.211 10.036 149.091 10.036C149.509 10.036 149.92 10.08 150.323 10.168C150.727 10.256 151.093 10.3733 151.423 10.52L150.873 11.851C150.631 11.7263 150.356 11.6237 150.048 11.543C149.74 11.4623 149.418 11.422 149.08 11.422C148.596 11.422 148.175 11.532 147.815 11.752C147.463 11.972 147.188 12.2837 146.99 12.687C146.8 13.083 146.704 13.5523 146.704 14.095C146.704 14.6083 146.774 15.063 146.913 15.459C147.053 15.855 147.273 16.1667 147.573 16.394C147.874 16.614 148.266 16.724 148.75 16.724C148.912 16.724 149.051 16.7203 149.168 16.713C149.293 16.6983 149.407 16.6837 149.509 16.669C149.612 16.647 149.711 16.6287 149.806 16.614V14.975H148.321V13.589ZM160.131 18H155.61V10.146H160.131V11.51H157.271V13.237H159.933V14.601H157.271V16.625H160.131V18Z" fill="black"/>
</g>
<defs>
<clipPath id="clip0_12_5">
<rect width="201" height="28" fill="white"/>
</clipPath>
</defs>
</svg>
