<svg width="198" height="28" viewBox="0 0 198 28" fill="none" xmlns="http://www.w3.org/2000/svg">
<g clip-path="url(#clip0_12_5)">
<rect width="198" height="28" fill="#E8DFDF"/>
<path d="M198 0H0V28H198V0Z" fill="#FBFBFB"/>
<path d="M198 0H0V28H198V0Z" stroke="black" stroke-opacity="0.05"/>
<mask id="mask0_12_5" style="mask-type:luminance" maskUnits="userSpaceOnUse" x="168" y="5" width="18" height="18">
<path d="M186 5H168V23H186V5Z" fill="white"/>
</mask>
<g mask="url(#mask0_12_5)">
<path d="M177 8.18612C174.639 4.13462 168 5.31737 168 10.3941C168 13.8898 172.178 17.4643 177 22.2501C181.823 17.4643 186 13.8898 186 10.3941C186 5.30012 179.344 4.16462 177 8.18612Z" fill="#EF4484"/>
</g>
<path d="M14.629 18H12.99V10.146H17.489V11.51H14.629V13.534H17.291V14.898H14.629V18ZM27.7281 15.228C27.7281 15.7707 27.6071 16.262 27.3651 16.702C27.1304 17.1347 26.7711 17.4793 26.2871 17.736C25.8104 17.9853 25.2054 18.11 24.4721 18.11C23.4308 18.11 22.6388 17.846 22.0961 17.318C21.5534 16.7827 21.2821 16.0787 21.2821 15.206V10.146H22.9431V14.953C22.9431 15.5983 23.0751 16.053 23.3391 16.317C23.6031 16.581 23.9954 16.713 24.5161 16.713C24.8828 16.713 25.1798 16.6507 25.4071 16.526C25.6344 16.4013 25.7994 16.207 25.9021 15.943C26.0121 15.679 26.0671 15.3453 26.0671 14.942V10.146H27.7281V15.228ZM38.9246 18H36.8126L33.3916 12.06H33.3476C33.3549 12.2433 33.3622 12.4303 33.3696 12.621C33.3769 12.8043 33.3842 12.9913 33.3916 13.182C33.4062 13.3653 33.4172 13.5523 33.4246 13.743C33.4319 13.9263 33.4392 14.1133 33.4466 14.304V18H31.9616V10.146H34.0626L37.4726 16.031H37.5056C37.4982 15.8477 37.4909 15.668 37.4836 15.492C37.4762 15.3087 37.4689 15.129 37.4616 14.953C37.4616 14.7697 37.4579 14.59 37.4506 14.414C37.4432 14.2307 37.4359 14.0473 37.4286 13.864V10.146H38.9246V18ZM49.7318 13.996C49.7318 14.876 49.5631 15.613 49.2258 16.207C48.8885 16.801 48.3971 17.2483 47.7518 17.549C47.1138 17.8497 46.3438 18 45.4418 18H43.2198V10.146H45.6838C46.5051 10.146 47.2165 10.2927 47.8178 10.586C48.4265 10.8793 48.8958 11.312 49.2258 11.884C49.5631 12.4487 49.7318 13.1527 49.7318 13.996ZM48.0048 14.04C48.0048 13.4607 47.9205 12.984 47.7518 12.61C47.5831 12.236 47.3301 11.961 46.9928 11.785C46.6628 11.6017 46.2558 11.51 45.7718 11.51H44.8808V16.625H45.5958C46.4098 16.625 47.0148 16.4087 47.4108 15.976C47.8068 15.5433 48.0048 14.898 48.0048 14.04ZM61.8648 18H60.2038V11.532H58.0698V10.146H63.9988V11.532H61.8648V18ZM73.9549 18H72.2939V14.612H69.1809V18H67.5199V10.146H69.1809V13.226H72.2939V10.146H73.9549V18ZM81.1781 18H77.6031V17.054L78.5601 16.614V11.532L77.6031 11.092V10.146H81.1781V11.092L80.2211 11.532V16.614L81.1781 17.054V18ZM89.4574 15.822C89.4574 16.284 89.3438 16.6873 89.1164 17.032C88.8891 17.3767 88.5591 17.6443 88.1264 17.835C87.7011 18.0183 87.1804 18.11 86.5644 18.11C86.2931 18.11 86.0254 18.0917 85.7614 18.055C85.5048 18.0183 85.2554 17.967 85.0134 17.901C84.7788 17.8277 84.5551 17.7397 84.3424 17.637V16.086C84.7164 16.2473 85.1014 16.3977 85.4974 16.537C85.9008 16.669 86.3004 16.735 86.6964 16.735C86.9678 16.735 87.1841 16.6983 87.3454 16.625C87.5141 16.5517 87.6351 16.4527 87.7084 16.328C87.7891 16.2033 87.8294 16.0603 87.8294 15.899C87.8294 15.701 87.7598 15.5323 87.6204 15.393C87.4884 15.2537 87.3088 15.1253 87.0814 15.008C86.8541 14.8833 86.5938 14.7513 86.3004 14.612C86.1171 14.524 85.9191 14.4213 85.7064 14.304C85.4938 14.1793 85.2884 14.029 85.0904 13.853C84.8998 13.6697 84.7421 13.4497 84.6174 13.193C84.4928 12.9363 84.4304 12.6283 84.4304 12.269C84.4304 11.7997 84.5368 11.4 84.7494 11.07C84.9694 10.7327 85.2774 10.476 85.6734 10.3C86.0768 10.124 86.5498 10.036 87.0924 10.036C87.5031 10.036 87.8918 10.0837 88.2584 10.179C88.6324 10.2743 89.0211 10.41 89.4244 10.586L88.8854 11.884C88.5261 11.7373 88.2034 11.6237 87.9174 11.543C87.6314 11.4623 87.3381 11.422 87.0374 11.422C86.8321 11.422 86.6561 11.455 86.5094 11.521C86.3628 11.587 86.2491 11.6787 86.1684 11.796C86.0951 11.9133 86.0584 12.0527 86.0584 12.214C86.0584 12.3973 86.1134 12.555 86.2234 12.687C86.3334 12.8117 86.4984 12.9327 86.7184 13.05C86.9384 13.1673 87.2134 13.3067 87.5434 13.468C87.9468 13.6587 88.2878 13.8567 88.5664 14.062C88.8524 14.2673 89.0724 14.5093 89.2264 14.788C89.3804 15.0667 89.4574 15.4113 89.4574 15.822ZM100.87 10.146C101.882 10.146 102.619 10.366 103.081 10.806C103.551 11.2387 103.785 11.8363 103.785 12.599C103.785 12.9437 103.734 13.2737 103.631 13.589C103.529 13.897 103.356 14.1757 103.114 14.425C102.88 14.667 102.568 14.8577 102.179 14.997C101.791 15.1363 101.31 15.206 100.738 15.206H100.023V18H98.3625V10.146H100.87ZM100.782 11.51H100.023V13.842H100.573C100.889 13.842 101.16 13.8017 101.387 13.721C101.615 13.6403 101.791 13.512 101.915 13.336C102.04 13.16 102.102 12.9327 102.102 12.654C102.102 12.2653 101.996 11.9793 101.783 11.796C101.571 11.6053 101.237 11.51 100.782 11.51ZM109.868 10.146C110.579 10.146 111.166 10.234 111.628 10.41C112.09 10.5787 112.434 10.839 112.662 11.191C112.889 11.5357 113.003 11.972 113.003 12.5C113.003 12.8593 112.933 13.1747 112.794 13.446C112.662 13.71 112.482 13.9373 112.255 14.128C112.035 14.3113 111.796 14.4617 111.54 14.579L113.85 18H112.002L110.132 14.986H109.241V18H107.58V10.146H109.868ZM109.747 11.51H109.241V13.633H109.78C110.146 13.633 110.443 13.5927 110.671 13.512C110.898 13.4313 111.063 13.3103 111.166 13.149C111.268 12.9803 111.32 12.7787 111.32 12.544C111.32 12.2947 111.261 12.0967 111.144 11.95C111.034 11.796 110.861 11.686 110.627 11.62C110.399 11.5467 110.106 11.51 109.747 11.51ZM124.279 14.062C124.279 14.6707 124.202 15.2243 124.048 15.723C123.902 16.2143 123.674 16.6397 123.366 16.999C123.066 17.3583 122.677 17.6333 122.2 17.824C121.731 18.0147 121.177 18.11 120.539 18.11C119.901 18.11 119.344 18.0147 118.867 17.824C118.398 17.626 118.009 17.351 117.701 16.999C117.401 16.6397 117.173 16.2107 117.019 15.712C116.873 15.2133 116.799 14.6597 116.799 14.051C116.799 13.237 116.931 12.5293 117.195 11.928C117.467 11.3267 117.877 10.861 118.427 10.531C118.985 10.1937 119.692 10.025 120.55 10.025C121.401 10.025 122.101 10.1937 122.651 10.531C123.201 10.861 123.608 11.3303 123.872 11.939C124.144 12.5403 124.279 13.248 124.279 14.062ZM118.548 14.062C118.548 14.612 118.618 15.085 118.757 15.481C118.897 15.877 119.113 16.1813 119.406 16.394C119.7 16.6067 120.077 16.713 120.539 16.713C121.016 16.713 121.397 16.6067 121.683 16.394C121.977 16.1813 122.189 15.877 122.321 15.481C122.461 15.085 122.53 14.612 122.53 14.062C122.53 13.2333 122.376 12.5843 122.068 12.115C121.76 11.6457 121.254 11.411 120.55 11.411C120.081 11.411 119.7 11.5173 119.406 11.73C119.113 11.9427 118.897 12.247 118.757 12.643C118.618 13.039 118.548 13.512 118.548 14.062ZM127.391 20.31C127.179 20.31 126.992 20.2953 126.83 20.266C126.669 20.244 126.53 20.2183 126.412 20.189V18.803C126.53 18.8323 126.654 18.858 126.786 18.88C126.911 18.902 127.047 18.913 127.193 18.913C127.384 18.913 127.556 18.8763 127.71 18.803C127.872 18.7297 127.996 18.5903 128.084 18.385C128.172 18.1797 128.216 17.8863 128.216 17.505V10.146H129.877V17.494C129.877 18.1687 129.771 18.7113 129.558 19.122C129.353 19.54 129.063 19.8407 128.689 20.024C128.315 20.2147 127.883 20.31 127.391 20.31ZM138.689 18H134.168V10.146H138.689V11.51H135.829V13.237H138.491V14.601H135.829V16.625H138.689V18ZM145.966 11.422C145.651 11.422 145.368 11.4843 145.119 11.609C144.877 11.7337 144.672 11.9133 144.503 12.148C144.334 12.3753 144.206 12.654 144.118 12.984C144.037 13.314 143.997 13.6843 143.997 14.095C143.997 14.6523 144.063 15.129 144.195 15.525C144.334 15.9137 144.551 16.2107 144.844 16.416C145.137 16.6213 145.511 16.724 145.966 16.724C146.289 16.724 146.608 16.6873 146.923 16.614C147.246 16.5407 147.594 16.438 147.968 16.306V17.703C147.623 17.8423 147.282 17.945 146.945 18.011C146.608 18.077 146.23 18.11 145.812 18.11C145.005 18.11 144.338 17.945 143.81 17.615C143.289 17.2777 142.904 16.8083 142.655 16.207C142.406 15.5983 142.281 14.8907 142.281 14.084C142.281 13.49 142.362 12.9473 142.523 12.456C142.684 11.9573 142.919 11.5283 143.227 11.169C143.542 10.8097 143.927 10.531 144.382 10.333C144.844 10.135 145.372 10.036 145.966 10.036C146.355 10.036 146.743 10.0873 147.132 10.19C147.528 10.2853 147.906 10.4173 148.265 10.586L147.726 11.939C147.433 11.7997 147.136 11.6787 146.835 11.576C146.542 11.4733 146.252 11.422 145.966 11.422ZM154.972 18H153.311V11.532H151.177V10.146H157.106V11.532H154.972V18Z" fill="black"/>
</g>
<defs>
<clipPath id="clip0_12_5">
<rect width="198" height="28" fill="white"/>
</clipPath>
</defs>
</svg>
