<svg width="141" height="28" viewBox="0 0 141 28" fill="none" xmlns="http://www.w3.org/2000/svg">
<g clip-path="url(#clip0_12_5)">
<rect width="141" height="28" fill="#E8DFDF"/>
<path d="M141 0H0V28H141V0Z" fill="#FBFBFB"/>
<path d="M140.5 0.5H0.5V27.5H140.5V0.5Z" stroke="black" stroke-opacity="0.05"/>
<mask id="mask0_12_5" style="mask-type:luminance" maskUnits="userSpaceOnUse" x="113" y="5" width="18" height="18">
<path d="M131 5H113V23H131V5Z" fill="white"/>
</mask>
<g mask="url(#mask0_12_5)">
<path d="M122 8.18612C119.639 4.13462 113 5.31737 113 10.3941C113 13.8898 117.178 17.4643 122 22.2501C126.823 17.4643 131 13.8898 131 10.3941C131 5.30012 124.344 4.16462 122 8.18612Z" fill="#EF4484"/>
</g>
<path d="M15.621 15.822C15.621 16.284 15.5073 16.6873 15.28 17.032C15.0527 17.3767 14.7227 17.6443 14.29 17.835C13.8647 18.0183 13.344 18.11 12.728 18.11C12.4567 18.11 12.189 18.0917 11.925 18.055C11.6683 18.0183 11.419 17.967 11.177 17.901C10.9423 17.8277 10.7187 17.7397 10.506 17.637V16.086C10.88 16.2473 11.265 16.3977 11.661 16.537C12.0643 16.669 12.464 16.735 12.86 16.735C13.1313 16.735 13.3477 16.6983 13.509 16.625C13.6777 16.5517 13.7987 16.4527 13.872 16.328C13.9527 16.2033 13.993 16.0603 13.993 15.899C13.993 15.701 13.9233 15.5323 13.784 15.393C13.652 15.2537 13.4723 15.1253 13.245 15.008C13.0177 14.8833 12.7573 14.7513 12.464 14.612C12.2807 14.524 12.0827 14.4213 11.87 14.304C11.6573 14.1793 11.452 14.029 11.254 13.853C11.0633 13.6697 10.9057 13.4497 10.781 13.193C10.6563 12.9363 10.594 12.6283 10.594 12.269C10.594 11.7997 10.7003 11.4 10.913 11.07C11.133 10.7327 11.441 10.476 11.837 10.3C12.2403 10.124 12.7133 10.036 13.256 10.036C13.6667 10.036 14.0553 10.0837 14.422 10.179C14.796 10.2743 15.1847 10.41 15.588 10.586L15.049 11.884C14.6897 11.7373 14.367 11.6237 14.081 11.543C13.795 11.4623 13.5017 11.422 13.201 11.422C12.9957 11.422 12.8197 11.455 12.673 11.521C12.5263 11.587 12.4127 11.6787 12.332 11.796C12.2587 11.9133 12.222 12.0527 12.222 12.214C12.222 12.3973 12.277 12.555 12.387 12.687C12.497 12.8117 12.662 12.9327 12.882 13.05C13.102 13.1673 13.377 13.3067 13.707 13.468C14.1103 13.6587 14.4513 13.8567 14.73 14.062C15.016 14.2673 15.236 14.5093 15.39 14.788C15.544 15.0667 15.621 15.4113 15.621 15.822ZM25.7496 15.228C25.7496 15.7707 25.6286 16.262 25.3866 16.702C25.1519 17.1347 24.7926 17.4793 24.3086 17.736C23.8319 17.9853 23.2269 18.11 22.4936 18.11C21.4523 18.11 20.6603 17.846 20.1176 17.318C19.5749 16.7827 19.3036 16.0787 19.3036 15.206V10.146H20.9646V14.953C20.9646 15.5983 21.0966 16.053 21.3606 16.317C21.6246 16.581 22.0169 16.713 22.5376 16.713C22.9043 16.713 23.2013 16.6507 23.4286 16.526C23.6559 16.4013 23.8209 16.207 23.9236 15.943C24.0336 15.679 24.0886 15.3453 24.0886 14.942V10.146H25.7496V15.228ZM32.491 10.146C33.503 10.146 34.24 10.366 34.702 10.806C35.1714 11.2387 35.406 11.8363 35.406 12.599C35.406 12.9437 35.3547 13.2737 35.252 13.589C35.1494 13.897 34.977 14.1757 34.735 14.425C34.5004 14.667 34.1887 14.8577 33.8 14.997C33.4114 15.1363 32.931 15.206 32.359 15.206H31.644V18H29.983V10.146H32.491ZM32.403 11.51H31.644V13.842H32.194C32.5094 13.842 32.7807 13.8017 33.008 13.721C33.2354 13.6403 33.4114 13.512 33.536 13.336C33.6607 13.16 33.723 12.9327 33.723 12.654C33.723 12.2653 33.6167 11.9793 33.404 11.796C33.1914 11.6053 32.8577 11.51 32.403 11.51ZM41.7083 10.146C42.7203 10.146 43.4573 10.366 43.9193 10.806C44.3886 11.2387 44.6233 11.8363 44.6233 12.599C44.6233 12.9437 44.5719 13.2737 44.4693 13.589C44.3666 13.897 44.1943 14.1757 43.9523 14.425C43.7176 14.667 43.4059 14.8577 43.0173 14.997C42.6286 15.1363 42.1483 15.206 41.5763 15.206H40.8613V18H39.2003V10.146H41.7083ZM41.6203 11.51H40.8613V13.842H41.4113C41.7266 13.842 41.9979 13.8017 42.2253 13.721C42.4526 13.6403 42.6286 13.512 42.7533 13.336C42.8779 13.16 42.9403 12.9327 42.9403 12.654C42.9403 12.2653 42.8339 11.9793 42.6213 11.796C42.4086 11.6053 42.0749 11.51 41.6203 11.51ZM55.5455 14.062C55.5455 14.6707 55.4685 15.2243 55.3145 15.723C55.1678 16.2143 54.9405 16.6397 54.6325 16.999C54.3318 17.3583 53.9432 17.6333 53.4665 17.824C52.9972 18.0147 52.4435 18.11 51.8055 18.11C51.1675 18.11 50.6102 18.0147 50.1335 17.824C49.6642 17.626 49.2755 17.351 48.9675 16.999C48.6668 16.6397 48.4395 16.2107 48.2855 15.712C48.1388 15.2133 48.0655 14.6597 48.0655 14.051C48.0655 13.237 48.1975 12.5293 48.4615 11.928C48.7328 11.3267 49.1435 10.861 49.6935 10.531C50.2508 10.1937 50.9585 10.025 51.8165 10.025C52.6672 10.025 53.3675 10.1937 53.9175 10.531C54.4675 10.861 54.8745 11.3303 55.1385 11.939C55.4098 12.5403 55.5455 13.248 55.5455 14.062ZM49.8145 14.062C49.8145 14.612 49.8842 15.085 50.0235 15.481C50.1628 15.877 50.3792 16.1813 50.6725 16.394C50.9658 16.6067 51.3435 16.713 51.8055 16.713C52.2822 16.713 52.6635 16.6067 52.9495 16.394C53.2428 16.1813 53.4555 15.877 53.5875 15.481C53.7268 15.085 53.7965 14.612 53.7965 14.062C53.7965 13.2333 53.6425 12.5843 53.3345 12.115C53.0265 11.6457 52.5205 11.411 51.8165 11.411C51.3472 11.411 50.9658 11.5173 50.6725 11.73C50.3792 11.9427 50.1628 12.247 50.0235 12.643C49.8842 13.039 49.8145 13.512 49.8145 14.062ZM61.7704 10.146C62.4817 10.146 63.0684 10.234 63.5304 10.41C63.9924 10.5787 64.337 10.839 64.5644 11.191C64.7917 11.5357 64.9054 11.972 64.9054 12.5C64.9054 12.8593 64.8357 13.1747 64.6964 13.446C64.5644 13.71 64.3847 13.9373 64.1574 14.128C63.9374 14.3113 63.699 14.4617 63.4424 14.579L65.7524 18H63.9044L62.0344 14.986H61.1434V18H59.4824V10.146H61.7704ZM61.6494 11.51H61.1434V13.633H61.6824C62.049 13.633 62.346 13.5927 62.5734 13.512C62.8007 13.4313 62.9657 13.3103 63.0684 13.149C63.171 12.9803 63.2224 12.7787 63.2224 12.544C63.2224 12.2947 63.1637 12.0967 63.0464 11.95C62.9364 11.796 62.764 11.686 62.5294 11.62C62.302 11.5467 62.0087 11.51 61.6494 11.51ZM72.0791 18H70.4181V11.532H68.2841V10.146H74.2131V11.532H72.0791V18ZM86.2236 18L84.3316 11.84H84.2876C84.295 11.9867 84.306 12.2067 84.3206 12.5C84.3353 12.7933 84.35 13.1087 84.3646 13.446C84.3793 13.776 84.3866 14.0767 84.3866 14.348V18H82.9016V10.146H85.1676L87.0266 16.152H87.0596L89.0286 10.146H91.2946V18H89.7436V14.282C89.7436 14.0327 89.7473 13.7467 89.7546 13.424C89.7693 13.1013 89.7803 12.797 89.7876 12.511C89.8023 12.2177 89.8133 11.9977 89.8206 11.851H89.7766L87.7526 18H86.2236ZM100.11 18H95.5886V10.146H100.11V11.51H97.2496V13.237H99.9116V14.601H97.2496V16.625H100.11V18Z" fill="black"/>
</g>
<defs>
<clipPath id="clip0_12_5">
<rect width="141" height="28" fill="white"/>
</clipPath>
</defs>
</svg>
