<svg width="218" height="28" viewBox="0 0 218 28" fill="none" xmlns="http://www.w3.org/2000/svg">
<g clip-path="url(#clip0_12_5)">
<rect width="218" height="28" fill="#E8DFDF"/>
<path d="M218 0H0V28H218V0Z" fill="#FBFBFB"/>
<path d="M218 0H0V28H218V0Z" stroke="black" stroke-opacity="0.05"/>
<mask id="mask0_12_5" style="mask-type:luminance" maskUnits="userSpaceOnUse" x="188" y="5" width="18" height="18">
<path d="M206 5H188V23H206V5Z" fill="white"/>
</mask>
<g mask="url(#mask0_12_5)">
<path d="M197 8.18612C194.639 4.13462 188 5.31737 188 10.3941C188 13.8898 192.178 17.4643 197 22.2501C201.823 17.4643 206 13.8898 206 10.3941C206 5.30012 199.344 4.16462 197 8.18612Z" fill="#EF4484"/>
</g>
<path d="M17.621 15.822C17.621 16.284 17.5073 16.6873 17.28 17.032C17.0527 17.3767 16.7227 17.6443 16.29 17.835C15.8647 18.0183 15.344 18.11 14.728 18.11C14.4567 18.11 14.189 18.0917 13.925 18.055C13.6683 18.0183 13.419 17.967 13.177 17.901C12.9423 17.8277 12.7187 17.7397 12.506 17.637V16.086C12.88 16.2473 13.265 16.3977 13.661 16.537C14.0643 16.669 14.464 16.735 14.86 16.735C15.1313 16.735 15.3477 16.6983 15.509 16.625C15.6777 16.5517 15.7987 16.4527 15.872 16.328C15.9527 16.2033 15.993 16.0603 15.993 15.899C15.993 15.701 15.9233 15.5323 15.784 15.393C15.652 15.2537 15.4723 15.1253 15.245 15.008C15.0177 14.8833 14.7573 14.7513 14.464 14.612C14.2807 14.524 14.0827 14.4213 13.87 14.304C13.6573 14.1793 13.452 14.029 13.254 13.853C13.0633 13.6697 12.9057 13.4497 12.781 13.193C12.6563 12.9363 12.594 12.6283 12.594 12.269C12.594 11.7997 12.7003 11.4 12.913 11.07C13.133 10.7327 13.441 10.476 13.837 10.3C14.2403 10.124 14.7133 10.036 15.256 10.036C15.6667 10.036 16.0553 10.0837 16.422 10.179C16.796 10.2743 17.1847 10.41 17.588 10.586L17.049 11.884C16.6897 11.7373 16.367 11.6237 16.081 11.543C15.795 11.4623 15.5017 11.422 15.201 11.422C14.9957 11.422 14.8197 11.455 14.673 11.521C14.5263 11.587 14.4127 11.6787 14.332 11.796C14.2587 11.9133 14.222 12.0527 14.222 12.214C14.222 12.3973 14.277 12.555 14.387 12.687C14.497 12.8117 14.662 12.9327 14.882 13.05C15.102 13.1673 15.377 13.3067 15.707 13.468C16.1103 13.6587 16.4513 13.8567 16.73 14.062C17.016 14.2673 17.236 14.5093 17.39 14.788C17.544 15.0667 17.621 15.4113 17.621 15.822ZM27.7496 15.228C27.7496 15.7707 27.6286 16.262 27.3866 16.702C27.1519 17.1347 26.7926 17.4793 26.3086 17.736C25.8319 17.9853 25.2269 18.11 24.4936 18.11C23.4523 18.11 22.6603 17.846 22.1176 17.318C21.5749 16.7827 21.3036 16.0787 21.3036 15.206V10.146H22.9646V14.953C22.9646 15.5983 23.0966 16.053 23.3606 16.317C23.6246 16.581 24.0169 16.713 24.5376 16.713C24.9043 16.713 25.2013 16.6507 25.4286 16.526C25.6559 16.4013 25.8209 16.207 25.9236 15.943C26.0336 15.679 26.0886 15.3453 26.0886 14.942V10.146H27.7496V15.228ZM34.491 10.146C35.503 10.146 36.24 10.366 36.702 10.806C37.1714 11.2387 37.406 11.8363 37.406 12.599C37.406 12.9437 37.3547 13.2737 37.252 13.589C37.1494 13.897 36.977 14.1757 36.735 14.425C36.5004 14.667 36.1887 14.8577 35.8 14.997C35.4114 15.1363 34.931 15.206 34.359 15.206H33.644V18H31.983V10.146H34.491ZM34.403 11.51H33.644V13.842H34.194C34.5094 13.842 34.7807 13.8017 35.008 13.721C35.2354 13.6403 35.4114 13.512 35.536 13.336C35.6607 13.16 35.723 12.9327 35.723 12.654C35.723 12.2653 35.6167 11.9793 35.404 11.796C35.1914 11.6053 34.8577 11.51 34.403 11.51ZM43.7083 10.146C44.7203 10.146 45.4573 10.366 45.9193 10.806C46.3886 11.2387 46.6233 11.8363 46.6233 12.599C46.6233 12.9437 46.5719 13.2737 46.4693 13.589C46.3666 13.897 46.1943 14.1757 45.9523 14.425C45.7176 14.667 45.4059 14.8577 45.0173 14.997C44.6286 15.1363 44.1483 15.206 43.5763 15.206H42.8613V18H41.2003V10.146H43.7083ZM43.6203 11.51H42.8613V13.842H43.4113C43.7266 13.842 43.9979 13.8017 44.2253 13.721C44.4526 13.6403 44.6286 13.512 44.7533 13.336C44.8779 13.16 44.9403 12.9327 44.9403 12.654C44.9403 12.2653 44.8339 11.9793 44.6213 11.796C44.4086 11.6053 44.0749 11.51 43.6203 11.51ZM57.5455 14.062C57.5455 14.6707 57.4685 15.2243 57.3145 15.723C57.1678 16.2143 56.9405 16.6397 56.6325 16.999C56.3318 17.3583 55.9432 17.6333 55.4665 17.824C54.9972 18.0147 54.4435 18.11 53.8055 18.11C53.1675 18.11 52.6102 18.0147 52.1335 17.824C51.6642 17.626 51.2755 17.351 50.9675 16.999C50.6668 16.6397 50.4395 16.2107 50.2855 15.712C50.1388 15.2133 50.0655 14.6597 50.0655 14.051C50.0655 13.237 50.1975 12.5293 50.4615 11.928C50.7328 11.3267 51.1435 10.861 51.6935 10.531C52.2508 10.1937 52.9585 10.025 53.8165 10.025C54.6672 10.025 55.3675 10.1937 55.9175 10.531C56.4675 10.861 56.8745 11.3303 57.1385 11.939C57.4098 12.5403 57.5455 13.248 57.5455 14.062ZM51.8145 14.062C51.8145 14.612 51.8842 15.085 52.0235 15.481C52.1628 15.877 52.3792 16.1813 52.6725 16.394C52.9658 16.6067 53.3435 16.713 53.8055 16.713C54.2822 16.713 54.6635 16.6067 54.9495 16.394C55.2428 16.1813 55.4555 15.877 55.5875 15.481C55.7268 15.085 55.7965 14.612 55.7965 14.062C55.7965 13.2333 55.6425 12.5843 55.3345 12.115C55.0265 11.6457 54.5205 11.411 53.8165 11.411C53.3472 11.411 52.9658 11.5173 52.6725 11.73C52.3792 11.9427 52.1628 12.247 52.0235 12.643C51.8842 13.039 51.8145 13.512 51.8145 14.062ZM63.7704 10.146C64.4817 10.146 65.0684 10.234 65.5304 10.41C65.9924 10.5787 66.337 10.839 66.5644 11.191C66.7917 11.5357 66.9054 11.972 66.9054 12.5C66.9054 12.8593 66.8357 13.1747 66.6964 13.446C66.5644 13.71 66.3847 13.9373 66.1574 14.128C65.9374 14.3113 65.699 14.4617 65.4424 14.579L67.7524 18H65.9044L64.0344 14.986H63.1434V18H61.4824V10.146H63.7704ZM63.6494 11.51H63.1434V13.633H63.6824C64.049 13.633 64.346 13.5927 64.5734 13.512C64.8007 13.4313 64.9657 13.3103 65.0684 13.149C65.171 12.9803 65.2224 12.7787 65.2224 12.544C65.2224 12.2947 65.1637 12.0967 65.0464 11.95C64.9364 11.796 64.764 11.686 64.5294 11.62C64.302 11.5467 64.0087 11.51 63.6494 11.51ZM74.0791 18H72.4181V11.532H70.2841V10.146H76.2131V11.532H74.0791V18ZM87.9266 18H86.2656V11.532H84.1316V10.146H90.0606V11.532H87.9266V18ZM100.017 18H98.3558V14.612H95.2428V18H93.5818V10.146H95.2428V13.226H98.3558V10.146H100.017V18ZM108.824 18H104.303V10.146H108.824V11.51H105.964V13.237H108.626V14.601H105.964V16.625H108.824V18ZM120.444 10.146C121.456 10.146 122.193 10.366 122.655 10.806C123.124 11.2387 123.359 11.8363 123.359 12.599C123.359 12.9437 123.307 13.2737 123.205 13.589C123.102 13.897 122.93 14.1757 122.688 14.425C122.453 14.667 122.141 14.8577 121.753 14.997C121.364 15.1363 120.884 15.206 120.312 15.206H119.597V18H117.936V10.146H120.444ZM120.356 11.51H119.597V13.842H120.147C120.462 13.842 120.733 13.8017 120.961 13.721C121.188 13.6403 121.364 13.512 121.489 13.336C121.613 13.16 121.676 12.9327 121.676 12.654C121.676 12.2653 121.569 11.9793 121.357 11.796C121.144 11.6053 120.81 11.51 120.356 11.51ZM129.441 10.146C130.152 10.146 130.739 10.234 131.201 10.41C131.663 10.5787 132.007 10.839 132.235 11.191C132.462 11.5357 132.576 11.972 132.576 12.5C132.576 12.8593 132.506 13.1747 132.367 13.446C132.235 13.71 132.055 13.9373 131.828 14.128C131.608 14.3113 131.369 14.4617 131.113 14.579L133.423 18H131.575L129.705 14.986H128.814V18H127.153V10.146H129.441ZM129.32 11.51H128.814V13.633H129.353C129.719 13.633 130.016 13.5927 130.244 13.512C130.471 13.4313 130.636 13.3103 130.739 13.149C130.841 12.9803 130.893 12.7787 130.893 12.544C130.893 12.2947 130.834 12.0967 130.717 11.95C130.607 11.796 130.434 11.686 130.2 11.62C129.972 11.5467 129.679 11.51 129.32 11.51ZM143.853 14.062C143.853 14.6707 143.776 15.2243 143.622 15.723C143.475 16.2143 143.248 16.6397 142.94 16.999C142.639 17.3583 142.25 17.6333 141.774 17.824C141.304 18.0147 140.751 18.11 140.113 18.11C139.475 18.11 138.917 18.0147 138.441 17.824C137.971 17.626 137.583 17.351 137.275 16.999C136.974 16.6397 136.747 16.2107 136.593 15.712C136.446 15.2133 136.373 14.6597 136.373 14.051C136.373 13.237 136.505 12.5293 136.769 11.928C137.04 11.3267 137.451 10.861 138.001 10.531C138.558 10.1937 139.266 10.025 140.124 10.025C140.974 10.025 141.675 10.1937 142.225 10.531C142.775 10.861 143.182 11.3303 143.446 11.939C143.717 12.5403 143.853 13.248 143.853 14.062ZM138.122 14.062C138.122 14.612 138.191 15.085 138.331 15.481C138.47 15.877 138.686 16.1813 138.98 16.394C139.273 16.6067 139.651 16.713 140.113 16.713C140.589 16.713 140.971 16.6067 141.257 16.394C141.55 16.1813 141.763 15.877 141.895 15.481C142.034 15.085 142.104 14.612 142.104 14.062C142.104 13.2333 141.95 12.5843 141.642 12.115C141.334 11.6457 140.828 11.411 140.124 11.411C139.654 11.411 139.273 11.5173 138.98 11.73C138.686 11.9427 138.47 12.247 138.331 12.643C138.191 13.039 138.122 13.512 138.122 14.062ZM146.964 20.31C146.752 20.31 146.565 20.2953 146.403 20.266C146.242 20.244 146.103 20.2183 145.985 20.189V18.803C146.103 18.8323 146.227 18.858 146.359 18.88C146.484 18.902 146.62 18.913 146.766 18.913C146.957 18.913 147.129 18.8763 147.283 18.803C147.445 18.7297 147.569 18.5903 147.657 18.385C147.745 18.1797 147.789 17.8863 147.789 17.505V10.146H149.45V17.494C149.45 18.1687 149.344 18.7113 149.131 19.122C148.926 19.54 148.636 19.8407 148.262 20.024C147.888 20.2147 147.456 20.31 146.964 20.31ZM158.262 18H153.741V10.146H158.262V11.51H155.402V13.237H158.064V14.601H155.402V16.625H158.262V18ZM165.539 11.422C165.224 11.422 164.942 11.4843 164.692 11.609C164.45 11.7337 164.245 11.9133 164.076 12.148C163.908 12.3753 163.779 12.654 163.691 12.984C163.611 13.314 163.57 13.6843 163.57 14.095C163.57 14.6523 163.636 15.129 163.768 15.525C163.908 15.9137 164.124 16.2107 164.417 16.416C164.711 16.6213 165.085 16.724 165.539 16.724C165.862 16.724 166.181 16.6873 166.496 16.614C166.819 16.5407 167.167 16.438 167.541 16.306V17.703C167.197 17.8423 166.856 17.945 166.518 18.011C166.181 18.077 165.803 18.11 165.385 18.11C164.579 18.11 163.911 17.945 163.383 17.615C162.863 17.2777 162.478 16.8083 162.228 16.207C161.979 15.5983 161.854 14.8907 161.854 14.084C161.854 13.49 161.935 12.9473 162.096 12.456C162.258 11.9573 162.492 11.5283 162.8 11.169C163.116 10.8097 163.501 10.531 163.955 10.333C164.417 10.135 164.945 10.036 165.539 10.036C165.928 10.036 166.317 10.0873 166.705 10.19C167.101 10.2853 167.479 10.4173 167.838 10.586L167.299 11.939C167.006 11.7997 166.709 11.6787 166.408 11.576C166.115 11.4733 165.825 11.422 165.539 11.422ZM174.545 18H172.884V11.532H170.75V10.146H176.679V11.532H174.545V18Z" fill="black"/>
</g>
<defs>
<clipPath id="clip0_12_5">
<rect width="218" height="28" fill="white"/>
</clipPath>
</defs>
</svg>
